<?xml version="1.0" encoding="UTF-8"?>
<svg version="1.1" xmlns="http://www.w3.org/2000/svg" width="64" height="64">
<path d="M0 0 C21.12 0 42.24 0 64 0 C64 21.12 64 42.24 64 64 C42.88 64 21.76 64 0 64 C0 42.88 0 21.76 0 0 Z " fill="#E3E4E4" transform="translate(0,0)"/>
<path d="M0 0 C4.27581963 0.30541569 6.22557028 2.96748379 9 6 C9.60714844 6.61488281 10.21429688 7.22976562 10.83984375 7.86328125 C13.84965507 11.03312344 15.79036244 13.37108731 17.1875 17.5625 C16.94044557 22.09183113 15.51647534 24.2634154 13 28 C12.34 27.67 11.68 27.34 11 27 C11.33 26.29875 11.66 25.5975 12 24.875 C13.11881793 21.65839846 13.36757538 19.38169345 13 16 C10.8667727 12.80015905 7.37031364 11.6577559 4 10 C4.01571045 10.79172607 4.0314209 11.58345215 4.04760742 12.39916992 C4.11006699 15.99520695 4.14902635 19.5911297 4.1875 23.1875 C4.21263672 24.43337891 4.23777344 25.67925781 4.26367188 26.96289062 C4.27333984 28.16494141 4.28300781 29.36699219 4.29296875 30.60546875 C4.3086792 31.71043701 4.32438965 32.81540527 4.34057617 33.95385742 C3.9567954 37.38642563 3.0202364 39.22895608 1 42 C-2.41432495 44.56074371 -5.85540605 44.44406364 -10 44 C-13.10639164 41.92907224 -13.84874457 40.71090051 -14.625 37.0625 C-13.91860045 33.60114221 -12.65185048 32.17151342 -9.99609375 29.8828125 C-7.00983177 28.56207824 -4.21729578 28.86993097 -1 29 C-1.00523682 28.15703369 -1.01047363 27.31406738 -1.01586914 26.44555664 C-1.03287826 23.32772064 -1.04543406 20.20990823 -1.05493164 17.09204102 C-1.05997057 15.74079614 -1.06680177 14.38955674 -1.07543945 13.03833008 C-1.08752419 11.09979566 -1.09269828 9.161222 -1.09765625 7.22265625 C-1.10551147 5.47094116 -1.10551147 5.47094116 -1.11352539 3.68383789 C-1 1 -1 1 0 0 Z " fill="#0A84B1" transform="translate(31,10)"/>
</svg>
